<svg xmlns="http://www.w3.org/2000/svg" width="30" height="91" fill="url(#MyGradient)" viewBox="0 0 30 91">
  <defs>
    <linearGradient id="MyGradient">
    <stop offset="5%" stop-color="#BC51DF" />
    <stop offset="95%" stop-color="#0069FF" />
  </linearGradient>
  </defs>
  <path id="MyGradient" data-name="Прямоугольник 5 копия 8" class="cls-1" d="M20,4250l30-30v5l-30,30v-5Zm0,7,30-30v5l-30,30v-5Zm0,7,30-30v5l-30,30v-5Zm0,7,30-30v5l-30,30v-5Zm0,7,30-30v5l-30,30v-5Zm0,7,30-30v5l-30,30v-5Zm0,7,30-30v5l-30,30v-5Zm0,7,30-30v5l-30,30v-5Zm0,7,30-30v5l-30,30v-5Z" transform="translate(-20 -4220)"/>
</svg>
