<!-- icon666.com - MILLIONS vector ICONS FREE --><svg xmlns="http://www.w3.org/2000/svg" id="Layer_1" data-name="Layer 1" fill="#ffffff" viewBox="0 0 48 48"><path d="M24,45.25A21.252,21.252,0,0,1,13.374,5.594,1.237,1.237,0,0,1,14,5.425a1.25,1.25,0,0,1,.626,2.333A18.753,18.753,0,0,0,24,42.75a1.25,1.25,0,0,1,0,2.5Z"/><path d="M34,42.574a1.25,1.25,0,0,1-.626-2.332A18.753,18.753,0,0,0,24,5.25a1.25,1.25,0,0,1,0-2.5A21.252,21.252,0,0,1,34.626,42.406,1.24,1.24,0,0,1,34,42.574Z"/><path d="M34,42.574a1.25,1.25,0,0,1-.626-2.332A18.753,18.753,0,0,0,24,5.25a1.25,1.25,0,0,1,0-2.5A21.252,21.252,0,0,1,34.626,42.406,1.24,1.24,0,0,1,34,42.574Z"/><path d="M24,45.25A21.252,21.252,0,0,1,13.374,5.594,1.237,1.237,0,0,1,14,5.425a1.25,1.25,0,0,1,.626,2.333A18.753,18.753,0,0,0,24,42.75a1.25,1.25,0,0,1,0,2.5Z"/><path d="M14,13.25A1.252,1.252,0,0,1,12.75,12V7.8L7.859,7.241a1.25,1.25,0,0,1,.132-2.492,1.119,1.119,0,0,1,.152.01l6,.679A1.248,1.248,0,0,1,15.25,6.68V12A1.252,1.252,0,0,1,14,13.25Z"/><path d="M39.856,43.241l-6-.679A1.248,1.248,0,0,1,32.75,41.32V36a1.25,1.25,0,0,1,2.5,0v4.2l4.891.556A1.249,1.249,0,0,1,40,43.25,1.2,1.2,0,0,1,39.856,43.241Z"/><path d="M24,10A14,14,0,1,0,38,24,14.016,14.016,0,0,0,24,10Zm4.884,18.884a1.251,1.251,0,0,1-1.768,0l-4-4A1.244,1.244,0,0,1,22.75,24V19a1.25,1.25,0,0,1,2.5,0v4.482l3.634,3.634a1.251,1.251,0,0,1,0,1.768Z"/></svg>