<!-- icon666.com - MILLIONS vector ICONS FREE --><svg id="Capa_1" enable-background="new 0 0 512 512" fill="url(#MyGradient)" viewBox="0 0 512 512" xmlns="http://www.w3.org/2000/svg">
<defs>
  <linearGradient id="MyGradient">
    <stop offset="5%" stop-color="#e7244c" />
    <stop offset="95%" stop-color="#fd7b56" />
  </linearGradient>
</defs><path d="m136.603 403.897h-13.473v-14.183c22.996-7.214 41.328-25.261 48.626-48.761 1.313.288 2.649.437 3.994.437 13.954 0 24.38-17.417 24.38-32.989 0-12.163-6.316-20.343-14.258-24.033 2.058-8.39 4.263-22.437 1.343-37.575-2.199-11.423-6.863-28.046-21.916-40.474-14.507-11.977-35.67-17.799-64.699-17.799-20.62 0-37.048 2.903-50.224 8.875-3.773 1.71-5.445 6.154-3.735 9.928 1.71 3.772 6.156 5.445 9.927 3.734 11.034-5.001 25.848-7.537 44.031-7.537 25.048 0 43.603 4.834 55.149 14.366 8.737 7.214 13.899 17.003 16.737 31.744 2.827 14.657-.328 28.454-2.042 34.329-4.139 2.369-6.846 6.637-8.441 11.458-9.962-16.733-28.068-23.542-45.655-30.154-14.87-5.592-28.915-10.873-38.038-21.719-7.113-8.462-14.685-7.65-18.565-6.412-11.436 3.646-18.908 19.666-19.699 29.332-.065.736-1.204 15.023-2.415 25.13-1.618-3.201-3.866-5.917-6.866-7.634-1.718-5.888-4.871-19.68-2.052-34.33 1.64-8.501 4.084-15.363 7.475-20.979 2.141-3.546 1.001-8.156-2.545-10.297-3.547-2.141-8.156-1.002-10.297 2.545-4.319 7.154-7.381 15.624-9.362 25.894-2.913 15.139-.706 29.185 1.353 37.574-7.94 3.691-14.256 11.87-14.256 24.033 0 15.572 10.426 32.989 24.38 32.989 1.344 0 2.68-.148 3.994-.438 7.3 23.503 25.638 41.552 48.676 48.765v14.181h-13.527c-35.622 0-64.603 28.981-64.603 64.603v36c0 4.143 3.358 7.5 7.5 7.5h186.206c4.142 0 7.5-3.357 7.5-7.5v-36c0-35.622-28.981-64.603-64.603-64.603zm-43.478 15h15v37.912c0 4.136-3.364 7.5-7.5 7.5s-7.5-3.364-7.5-7.5zm82.625-92.507c-.343 0-.676-.05-.996-.137.603-5.938.311-9.351.386-18.748.039-4.226 1.311-8.817 2.432-10.2 3.75.755 7.558 3.965 7.558 11.096 0 9.478-6.371 17.989-9.38 17.989zm-159.67-17.99c0-7.131 3.808-10.341 7.558-11.096 1.121 1.383 2.393 5.973 2.432 10.179.075 9.43-.216 12.833.386 18.768-.32.088-.653.138-.996.138-3.009.001-9.38-8.51-9.38-17.989zm25.821 20.215c-.003-.018-.006-.037-.009-.055-1.081-6.459-.766-11.029-.822-13.008 3.035-.647 5.789-2.312 7.648-5.339 3.771-6.165 5.067-30.407 6.277-42.511.492-6.004 5.711-15.133 9.307-16.279.737-.237 2.012 1.162 2.528 1.775 11.65 13.85 28.217 20.08 44.238 26.104 18.64 7.009 34.738 13.063 40.772 29.557 1.341 3.691 4.374 6.185 8.3 6.924-.053 1.839.251 6.36-.821 12.768-.003.02-.007.039-.01.059-4.858 28.866-29.667 49.53-58.75 49.53-29.245 0-53.84-20.913-58.658-49.525zm66.229 64.156v11.125h-15v-11.127c4.817.477 9.866.51 15 .002zm78.076 104.229h-171.206v-28.5c0-27.351 22.252-49.603 49.603-49.603h13.522v37.912c0 12.406 10.093 22.5 22.5 22.5s22.5-10.094 22.5-22.5v-37.912h13.478c27.351 0 49.603 22.252 49.603 49.603z"></path><path d="m362.806 274.308-5.681 11.483c-1.615 3.265-4.738 5.527-8.354 6.051l-12.705 1.843c-6.014.872-10.913 5.001-12.786 10.774-1.87 5.766-.331 11.975 4.017 16.202l9.192 8.938c2.61 2.538 3.801 6.191 3.185 9.772l-2.17 12.622c-1.026 5.968 1.38 11.89 6.281 15.455 2.779 2.022 6.032 3.05 9.307 3.05 2.514 0 5.041-.605 7.376-1.831l11.363-5.959c3.236-1.697 7.103-1.697 10.339 0l11.362 5.959c5.381 2.823 11.772 2.355 16.684-1.219 4.9-3.565 7.307-9.487 6.281-15.455l-2.17-12.622c-.616-3.581.575-7.234 3.185-9.772l9.192-8.938c4.348-4.228 5.887-10.437 4.017-16.202-1.873-5.773-6.772-9.902-12.787-10.775l-12.704-1.842c-3.616-.523-6.739-2.786-8.354-6.051l-5.681-11.482c-2.688-5.434-8.126-8.809-14.194-8.809s-11.507 3.375-14.195 8.808zm14.944 6.652 5.681 11.483c3.803 7.687 11.147 13.012 19.646 14.244l12.704 1.841c.167.024.514.075.671.56.153.471-.089.706-.206.819l-9.193 8.938c-6.157 5.987-8.964 14.611-7.51 23.067l2.17 12.622c.027.159.084.489-.323.785-.425.309-.74.143-.891.064l-11.363-5.959c-7.6-3.986-16.673-3.986-24.272 0l-11.363 5.959c-.151.078-.465.244-.891-.064-.407-.296-.35-.626-.323-.785l2.17-12.622c1.454-8.456-1.354-17.08-7.511-23.067l-9.192-8.938c-.117-.113-.359-.349-.206-.819.157-.484.504-.535.671-.559l12.704-1.842c8.499-1.232 15.843-6.558 19.646-14.244l5.681-11.484c.074-.148.228-.459.75-.459s.675.311.75.46z"></path><path d="m285.463 210.158c0 6.341 5.159 11.5 11.5 11.5h52c6.341 0 11.5-5.159 11.5-11.5v-52c0-6.341-5.159-11.5-11.5-11.5h-52c-6.341 0-11.5 5.159-11.5 11.5zm15-48.5h45v45h-45z"></path><path d="m395 173.658h64c4.142 0 7.5-3.357 7.5-7.5s-3.358-7.5-7.5-7.5h-64c-4.142 0-7.5 3.357-7.5 7.5s3.358 7.5 7.5 7.5z"></path><path d="m395 205.658h64c4.142 0 7.5-3.357 7.5-7.5s-3.358-7.5-7.5-7.5h-64c-4.142 0-7.5 3.357-7.5 7.5s3.358 7.5 7.5 7.5z"></path><path d="m444.5 401.5h-135c-4.142 0-7.5 3.357-7.5 7.5s3.358 7.5 7.5 7.5h135c4.142 0 7.5-3.357 7.5-7.5s-3.358-7.5-7.5-7.5z"></path><path d="m444.5 433.5h-135c-4.142 0-7.5 3.357-7.5 7.5s3.358 7.5 7.5 7.5h135c4.142 0 7.5-3.357 7.5-7.5s-3.358-7.5-7.5-7.5z"></path><path d="m348.963 46.658h-52c-6.341 0-11.5 5.159-11.5 11.5v52c0 6.341 5.159 11.5 11.5 11.5h52c6.341 0 11.5-5.159 11.5-11.5v-52c0-6.341-5.158-11.5-11.5-11.5zm-3.5 60h-45v-45h45z"></path><path d="m395 73.658h64c4.142 0 7.5-3.357 7.5-7.5s-3.358-7.5-7.5-7.5h-64c-4.142 0-7.5 3.357-7.5 7.5s3.358 7.5 7.5 7.5z"></path><path d="m395 105.658h64c4.142 0 7.5-3.357 7.5-7.5s-3.358-7.5-7.5-7.5h-64c-4.142 0-7.5 3.357-7.5 7.5s3.358 7.5 7.5 7.5z"></path><path d="m504.5 464.551c-4.142 0-7.5 3.357-7.5 7.5v12.449c0 6.893-5.607 12.5-12.5 12.5h-210c-6.893 0-12.5-5.607-12.5-12.5v-88.54c0-4.143-3.358-7.5-7.5-7.5h-35.179l39.844-31.647c1.792-1.423 2.835-3.586 2.835-5.873v-255.168c0-4.143-3.358-7.5-7.5-7.5s-7.5 3.357-7.5 7.5v251.546l-53.845 42.769c-2.498 1.984-3.468 5.331-2.417 8.343 1.051 3.013 3.892 5.03 7.082 5.03h49.18v81.04c0 15.164 12.336 27.5 27.5 27.5h210c15.164 0 27.5-12.336 27.5-27.5v-12.449c0-4.143-3.358-7.5-7.5-7.5z"></path><path d="m484.5 0h-210c-15.164 0-27.5 12.337-27.5 27.5v35.9c0 4.143 3.358 7.5 7.5 7.5s7.5-3.357 7.5-7.5v-35.9c0-6.893 5.607-12.5 12.5-12.5h210c6.893 0 12.5 5.607 12.5 12.5v412.365c0 4.143 3.358 7.5 7.5 7.5s7.5-3.357 7.5-7.5v-412.365c0-15.163-12.336-27.5-27.5-27.5z"></path></svg>