<!-- icon666.com - MILLIONS vector ICONS FREE --><svg id="analyse" enable-background="new 0 0 300 300" fill="url(#MyGradient)" viewBox="0 0 300 300" xmlns="http://www.w3.org/2000/svg">
<linearGradient id="MyGradient">
    <stop offset="5%" stop-color="#BC51DF" />
    <stop offset="95%" stop-color="#0069FF" />
  </linearGradient>
<g><circle cx="52.831" cy="71.416" r="4"></circle><circle cx="64.831" cy="71.416" r="4"></circle><circle cx="76.831" cy="71.416" r="4"></circle><path d="m244.831 159.416c2.211 0 4-1.789 4-4v-48c0-2.211-1.789-4-4-4s-4 1.789-4 4v48c0 2.211 1.789 4 4 4z"></path><circle cx="192.831" cy="31.416" r="4"></circle><path d="m228.347 47.9c.781.781 1.805 1.172 2.828 1.172s2.047-.391 2.828-1.172l2.828-2.828 2.828 2.828c.781.781 1.805 1.172 2.828 1.172s2.047-.391 2.828-1.172c1.562-1.562 1.562-4.094 0-5.656l-2.828-2.828 2.828-2.828c1.562-1.562 1.562-4.094 0-5.656s-4.094-1.562-5.656 0l-2.828 2.828-2.828-2.828c-1.562-1.562-4.094-1.562-5.656 0s-1.562 4.094 0 5.656l2.828 2.828-2.828 2.828c-1.563 1.563-1.563 4.094 0 5.656z"></path><path d="m56.831 103.416h40c2.211 0 4-1.789 4-4s-1.789-4-4-4h-40c-2.211 0-4 1.789-4 4s1.789 4 4 4z"></path><path d="m216.831 127.416h-92c-2.211 0-4 1.789-4 4s1.789 4 4 4h92c2.211 0 4-1.789 4-4s-1.789-4-4-4z"></path><path d="m160.831 115.416c0 2.211 1.789 4 4 4h52c2.211 0 4-1.789 4-4s-1.789-4-4-4h-52c-2.211 0-4 1.789-4 4z"></path><path d="m108.831 191.416h-52c-2.211 0-4 1.789-4 4s1.789 4 4 4h52c2.211 0 4-1.789 4-4s-1.789-4-4-4z"></path><path d="m56.831 135.416h52c2.211 0 4-1.789 4-4s-1.789-4-4-4h-52c-2.211 0-4 1.789-4 4s1.789 4 4 4z"></path><path d="m176.831 103.416h16c2.211 0 4-1.789 4-4s-1.789-4-4-4h-16c-2.211 0-4 1.789-4 4s1.789 4 4 4z"></path><path d="m112.831 103.416h48c2.211 0 4-1.789 4-4s-1.789-4-4-4h-48c-2.211 0-4 1.789-4 4s1.789 4 4 4z"></path><path d="m56.831 167.416h28c2.211 0 4-1.789 4-4s-1.789-4-4-4h-28c-2.211 0-4 1.789-4 4s1.789 4 4 4z"></path><path d="m128.831 167.416c2.211 0 4-1.789 4-4s-1.789-4-4-4h-28c-2.211 0-4 1.789-4 4s1.789 4 4 4z"></path><path d="m140.831 143.416h-84c-2.211 0-4 1.789-4 4s1.789 4 4 4h84c2.211 0 4-1.789 4-4s-1.789-4-4-4z"></path><path d="m132.831 175.416h-76c-2.211 0-4 1.789-4 4s1.789 4 4 4h76c2.211 0 4-1.789 4-4s-1.789-4-4-4z"></path><path d="m56.831 119.416h92c2.211 0 4-1.789 4-4s-1.789-4-4-4h-92c-2.211 0-4 1.789-4 4s1.789 4 4 4z"></path><path d="m264.245 255.518-12.712-12.712c5.358-1.618 9.298-6.542 9.298-12.42v-161.939c0-7.184-5.848-13.031-13.031-13.031h-201.938c-7.184 0-13.031 5.848-13.031 13.031v161.938c0 7.184 5.848 13.031 13.031 13.031h123.328c8.421 5.29 18.022 7.977 27.641 7.977 9.474 0 18.926-2.617 27.255-7.749l26.018 26.015c1.949 1.949 4.508 2.926 7.07 2.926s5.121-.977 7.07-2.926c3.9-3.899 3.9-10.243.001-14.141zm-218.383-192.102h201.938c2.773 0 5.031 2.258 5.031 5.031v10.969h-212v-10.969c0-2.773 2.258-5.031 5.031-5.031zm-5.031 166.969v-142.969h212v142.969c0 2.773-2.258 5.031-5.031 5.031h-3.656l-5.368-5.368c14.856-20.326 13.171-49.056-5.175-67.401-20.273-20.273-53.266-20.273-73.539 0-20.026 20.026-20.233 52.44-.695 72.77h-113.505c-2.773-.001-5.031-2.259-5.031-5.032zm124.887.144c-17.156-17.156-17.156-45.07 0-62.227 8.578-8.578 19.848-12.867 31.113-12.867s22.535 4.289 31.113 12.867c17.156 17.156 17.156 45.07 0 62.227s-45.07 17.157-62.226 0zm92.871 33.473c-.781.781-2.047.781-2.828 0l-25.134-25.13c1.009-.865 2.018-1.731 2.973-2.687l24.988 24.988c.778.782.778 2.048.001 2.829z"></path><path d="m184.831 207.416h-20c-2.211 0-4 1.789-4 4v7.543c0 2.211 1.789 4 4 4s4-1.789 4-4v-3.543h12v17.555c0 2.211 1.789 4 4 4s4-1.789 4-4v-21.555c0-2.211-1.789-4-4-4z"></path><path d="m200.831 207.416c-2.211 0-4 1.789-4 4v20c0 2.211 1.789 4 4 4s4-1.789 4-4v-20c0-2.211-1.789-4-4-4z"></path><path d="m216.831 207.416c-2.211 0-4 1.789-4 4v20c0 2.211 1.789 4 4 4s4-1.789 4-4v-20c0-2.211-1.789-4-4-4z"></path><path d="m216.831 167.416c-2.211 0-4 1.789-4 4v28c0 2.211 1.789 4 4 4s4-1.789 4-4v-28c0-2.211-1.789-4-4-4z"></path><path d="m200.831 167.416h-20c-2.211 0-4 1.789-4 4v28c0 2.211 1.789 4 4 4h20c2.211 0 4-1.789 4-4v-28c0-2.211-1.789-4-4-4zm-4 28h-12v-20h12z"></path></g></svg>