<!-- icon666.com - MILLIONS vector ICONS FREE --><svg id="Layer_1" enable-background="new 0 0 70 70" fill="#ffffff" viewBox="0 0 70 70" xmlns="http://www.w3.org/2000/svg"><g id="Report_Testing"><g><path d="m16.344717 50.3803711h-6.2800293c-1.2800293 0-2.3200684 1.0395508-2.3200684 2.3198242v6.3696289c0 1.2802734 1.0400391 2.3203125 2.3200684 2.3203125h6.2800293c1.2799072 0 2.3199463-1.0400391 2.3199463-2.3203125v-6.3696289c0-1.2802734-1.040039-2.3198242-2.3199463-2.3198242z" fill="#000000" style="fill: rgb(255, 255, 255);"></path><path d="m16.344717 8.6098633h-6.2800293c-1.2800293 0-2.3200684 1.0400391-2.3200684 2.3100586v6.3701172c0 1.2797852 1.0400391 2.3198242 2.3200684 2.3198242h6.2800293c1.2799072 0 2.3199463-1.0400391 2.3199463-2.3198242v-6.3701172c0-1.2700196-1.040039-2.3100586-2.3199463-2.3100586zm-.8200683 5.4599609-2.5500488 2.550293c-.4169502.3960781-1.0232372.3768253-1.4199219 0l-1.4100342-1.4199219c-.3900146-.3901367-.3900146-1.0200195 0-1.4101563s1.0200195-.3901367 1.4100342 0c.100049.1000481.81001.810009.7099609.7099609.1003113-.100318 1.969183-1.9693127 1.8499756-1.8500977.3900146-.3896484 1.0200195-.3896484 1.4100342 0 .3900146.3901369.3900146 1.0302736 0 1.419922z" fill="#000000" style="fill: rgb(255, 255, 255);"></path><path d="m16.344717 22.5302734h-6.2800293c-1.2800293 0-2.3200684 1.0395508-2.3200684 2.3198242v6.3701172c0 1.2797852 1.0400391 2.3198242 2.3200684 2.3198242h6.2800293c1.2799072 0 2.3199463-1.0400391 2.3199463-2.3198242v-6.3701172c0-1.2802734-1.040039-2.3198242-2.3199463-2.3198242zm-.8200683 4.9399414-2.5500488 2.5498047c-.3990898.3990898-1.0451727.3747501-1.4199219 0l-1.4100342-1.4199219c-.3900146-.3901367-.3900146-1.0200195 0-1.4101563.3900146-.3896484 1.0200195-.3896484 1.4100342 0 .100049.1000481.81001.810009.7099609.7099609l1.8499756-1.8496094c.3900146-.3901367 1.0200195-.3901367 1.4100342 0 .3900146.3896486.3900146 1.0297853 0 1.419922z" fill="#000000" style="fill: rgb(255, 255, 255);"></path><path d="m16.344717 36.4599609h-6.2800293c-1.2800293 0-2.3200684 1.0400391-2.3200684 2.3100586v6.3701172c0 1.2797852 1.0400391 2.3198242 2.3200684 2.3198242h6.2800293c1.2799072 0 2.3199463-1.0400391 2.3199463-2.3198242v-6.3701172c0-1.2700195-1.040039-2.3100586-2.3199463-2.3100586zm-.8400879 6.209961c.3900146.3901367.3900146 1.0302734 0 1.4204102-.3798294.3798294-1.0173969.3925171-1.4099121 0l-.8901367-.8901367-.8898926.8901367c-.3919668.391716-1.0291052.3806839-1.4100342 0-.3900146-.3901367-.3900146-1.0302734 0-1.4204102l.8900146-.8798828-.8900146-.8901367c-.3900146-.3896484-.3900146-1.0195313 0-1.409668s1.0198975-.3901367 1.4100342 0l.8898926.8901367.8901367-.8901367c.3898926-.3901367 1.0198975-.3901367 1.4099121 0s.3900146 1.0200195 0 1.409668l-.8900146.8901367z" fill="#000000" style="fill: rgb(255, 255, 255);"></path><path d="m24.9545803 12.1000977h18.4600849c.5499268 0 1-.4501953 1-1s-.4500732-1-1-1h-18.4600849c-.5499268 0-1 .4501953-1 1s.4500732 1 1 1z" fill="#000000" style="fill: rgb(255, 255, 255);"></path><path d="m24.9545803 16.9702148h10.290041c.5500488 0 1-.4399414 1-1 0-.550293-.4499512-1-1-1h-10.290041c-.5499268 0-1 .449707-1 1 0 .5600586.4500732 1 1 1z" fill="#000000" style="fill: rgb(255, 255, 255);"></path><path d="m43.4146652 53h-18.4600849c-.5499268 0-1 .4501953-1 1 0 .5600586.4500732 1 1 1h18.4600849c.5499268 0 1-.4399414 1-1 0-.5498047-.4500732-1-1-1z" fill="#000000" style="fill: rgb(255, 255, 255);"></path><path d="m35.2446213 57.8803711h-10.290041c-.5499268 0-1 .449707-1 1 0 .5498047.4500732 1 1 1h10.290041c.5500488 0 1-.4501953 1-1 0-.550293-.4499512-1-1-1z" fill="#000000" style="fill: rgb(255, 255, 255);"></path><path d="m66.7353439 56.9067383-5.5700684-7.3603516c-.6699219-.8798828-1.9199219-1.0498047-2.8000488-.3896484l-.0244141.0185547-.7661133-1.0151367c2.2600098-2.3701172 3.619873-5.4199219 3.869873-8.7299805.533535-7.008728-4.0022812-12.9837208-10.1699219-14.7802734v-14.8999024c0-3.7197266-3.0300293-6.75-6.7600098-6.75h-35.4000261c-3.7299805 0-6.7698975 3.0302734-6.7698975 6.75v50.4799805c0 3.7299804 3.039917 6.7700195 6.7698975 6.7700195h35.4000244c3.7299805 0 6.7600098-3.0400391 6.7600098-6.7700195v-8.199707c.8000488-.2299805 1.5799561-.5400391 2.3299561-.9204102l.7969971 1.0463867-.0263672.0200195c-.8798828.6699219-1.0600586 1.9301758-.3898926 2.800293l5.5700684 7.3696289c1.5275841 1.9884186 4.3467064 2.3612518 6.3098145.8701172 1.9035357-1.4474983 2.4395617-4.2438049.8701189-6.3095703zm-20.4606933-6.3266602c-6.995697-.5348358-11.872345-6.7453537-11.3000488-13.1801758.4943886-6.4657116 5.97966-11.7710991 13.1800537-11.3095703 6.4172249.5029888 11.7529869 5.9409599 11.2999268 13.1899414-.5176927 6.7311707-6.4115601 11.8311654-13.1799317 11.2998047zm3 9.6499024c0 2.6298828-2.1300049 4.7700195-4.7600098 4.7700195h-35.4000263c-2.6300049 0-4.7698975-2.1401367-4.7698975-4.7700195v-50.4799805c0-2.6196289 2.1398926-4.75 4.7698975-4.75h35.4000244c2.6300049 0 4.7600098 2.1303711 4.7600098 4.75v14.4599609c-.3200684-.0498047-.6400146-.0795898-.9699707-.1098633-1.7199707-.1298828-3.4200439.0400391-5.0300293.5h-18.3200684c-.5499268 0-1 .4399414-1 1 0 .5498047.4500732 1 1 1h14.1201191c-1.1003227.7424984-2.2794724 1.820467-3.2200928 3.0800781-.1700439-.1298828-.3800049-.2099609-.6099854-.2099609h-10.290041c-.5499268 0-1 .449707-1 1 0 .5498047.4500732 1 1 1h9.7299824c-.9699706 1.7597657-1.5499267 3.7197266-1.7099609 5.7797852-.0400391.4902344-.0500488.9902344-.0300293 1.4799805h-7.9899921c-.5499268 0-1 .4399414-1 1 0 .550293.4500732 1 1 1h8.1800556c.1600342.9799805.4300537 1.9501953.7999268 2.8701172h-8.9799824c-.5499268 0-1 .4501953-1 1s.4500732 1 1 1h9.9600849c2.3159752 3.9144821 6.4053726 6.6142235 11.2099609 6.9799805.9189606.0739784 2.0474129.0540504 3.1500244-.1098633v7.7597656z" fill="#000000" style="fill: rgb(255, 255, 255);"></path><path d="m55.964592 39.0600586v-1.4902344c0-.7597656-.5400391-1.4199219-1.2900391-1.5595703l-.2698975-.050293c-.1199951-.3696289-.2700195-.7299805-.4400635-1.0795898l.1400146-.2104492c.4300537-.6396484.3499756-1.4799805-.1899414-2.0200195l-1.0400391-1.0297852c-.5505638-.576643-1.4329834-.6178551-2.0200195-.2099609l-.2299805.1499023c-.1267052-.0691872-.6879196-.3193836-1.0799561-.4501953l-.0500488-.2294922c-.1582375-.7911797-.8167572-1.300293-1.5600586-1.300293h-1.4899902c-.7700195 0-1.4299316.5400391-1.5599365 1.2900391l-.0599365.2602539c-.3701172.1196289-.7299805.2797852-1.0800781.449707l-.2099609-.1401367c-.6400146-.4296875-1.4799805-.3496094-2 .1904297l-1.0500488 1.0498047c-.5500488.5297852-.6300049 1.3798828-.2099609 2.0200195l.1599121.2197266c-.1799317.3500976-.3299561.7104492-.4499512 1.0800781l-.2600098.050293c-.75.159668-1.2700195.7998047-1.2700195 1.5595703 0 .1006927 0 1.5909271 0 1.4902344 0 .7422562.5223045 1.4309196 1.2800293 1.5600586l.2600098.0600586v.0097656c.1300049.3603516.2700195.7099609.4599609 1.0600586l-.1599121.2202148c-.4100342.6298828-.3200684 1.4697266.1999512 2l1.0500488 1.0498047c.5300293.5498047 1.3798828.6298828 2.0200195.2099609l.2299805-.1601563c.3399658.1801758.6999512.3300781 1.0799561.4501953l.0499268.2597656c.1501465.75.7900391 1.2705078 1.5600586 1.2705078h1.4899902c.5300293 0 1.0100098-.2602539 1.3000488-.6801758.1300049-.1699219.2199707-.3798828.2600098-.6000977l.0500488-.2700195c.500843-.1743927.8803291-.3424911 1.0799561-.449707l.2199707.1499023c.6422157.4259682 1.4889641.348114 2-.2001953l1.039917-1.0297852c.5500488-.5400391.6501465-1.3901367.210083-2.0200195l-.1500245-.2402342c.1700439-.3398438.3200684-.7099609.4499512-1.0800781l.2399902-.0498047c.75-.1401367 1.2900391-.7900391 1.2900391-1.5600586zm-8.7600098 2.9501953c-2.0222931 0-3.6699219-1.6479263-3.6699219-3.6699219 0-2.0302734 1.6499023-3.6801758 3.6699219-3.6801758 2.0518341 0 3.6800537 1.6768227 3.6800537 3.6801758 0 2.0559044-1.6887703 3.6699219-3.6800537 3.6699219z" fill="#000000" style="fill: rgb(255, 255, 255);"></path></g></g></svg>