<!-- icon666.com - MILLIONS vector ICONS FREE --><svg id="Capa_1" enable-background="new 0 0 512.037 512.037" fill="#ffffff" viewBox="0 0 512.037 512.037" xmlns="http://www.w3.org/2000/svg"><g><path d="m307.148 465.591v-28.569h36.937v-132.205h-160.311v-30h160.877v29.435l48.369-.001v-304.251h-322.019v505.827l32.208-15.206 32.207 21.379 32.203-21.379 32.205 21.379 32.203-21.379 32.202 21.379 32.198-21.379 32.198 21.379 14.983-9.949zm-155.709-31.962h-32.068v-30h32.068zm0-64.405h-32.068v-30h32.068zm0-64.407h-32.068v-30h32.068zm89.414-141.036h-17.686c-26.024 0-47.197-21.173-47.197-47.197 0-23.937 17.916-43.754 41.04-46.782v-22.459h30v22.51c22.939 3.205 40.654 22.943 40.654 46.75h-30c0-9.493-7.724-17.217-17.217-17.217h-17.28c-9.482 0-17.197 7.715-17.197 17.197s7.715 17.197 17.197 17.197h17.686c26.024 0 47.197 21.173 47.197 47.197 0 23.937-17.916 43.753-41.04 46.781v22.46h-30v-22.424c-22.96-2.885-40.784-22.517-40.784-46.247h30c0 9.168 7.459 16.626 16.627 16.626h18c9.482 0 17.197-7.714 17.197-17.196s-7.715-17.196-17.197-17.196zm39.394 269.848h-96.473v-30h96.473zm-96.473-64.405v-30h128.675v30z"/><path d="m374.084 467.021h-23.08l45.016 45.016 45.017-45.016h-23.081v-132.771l-43.872.002z"/></g></svg>