<!-- icon666.com - MILLIONS vector ICONS FREE --><svg viewBox="0 -40 463.99998 463" fill="url(#MyGradient)" xmlns="http://www.w3.org/2000/svg">
<linearGradient id="MyGradient">
    <stop offset="5%" stop-color="#e7244c" />
    <stop offset="95%" stop-color="#fd7b56" />
  </linearGradient>
<path d="m348 269.496094c2.476562-1.429688 4-4.070313 4-6.929688v-141.109375c0-2.859375-1.523438-5.5-4-6.929687l-112-64.664063c-2.46875-1.421875-5.53125-1.421875-8 0l-112 64.664063c-2.476562 1.429687-4 4.070312-4 6.929687v141.109375c0 2.859375 1.523438 5.5 4 6.929688l112 64.664062c1.234375.710938 2.617188 1.070313 4 1.070313s2.765625-.359375 4-1.070313zm-220-11.546875v-131.875l104-60.046875 104 60.046875v131.875l-104 60.046875zm0 0"></path><path d="m461.171875 169.910156c-2.125-1.804687-5.054687-2.375-7.703125-1.484375l-61.46875 20.488281v-92.660156c0-2.859375-1.523438-5.5-4-6.929687l-152-87.757813c-2.46875-1.421875-5.53125-1.421875-8 0l-152 87.757813c-2.476562 1.429687-4 4.070312-4 6.929687v92.660156l-61.46875-20.488281c-2.648438-.90625-5.578125-.320312-7.703125 1.484375-2.132813 1.8125-3.171875 4.601563-2.726563 7.359375l14.898438 93.429688c.476562 2.976562 2.585938 5.4375 5.453125 6.359375l20.382813 6.542968 23.8125 55.558594c1.117187 2.609375 3.53125 4.429688 6.34375 4.789063l115.765624 14.695312 41.242188 23.8125c1.234375.710938 2.617188 1.070313 4 1.070313s2.765625-.359375 4-1.070313l41.242188-23.8125 115.765624-14.695312c2.8125-.359375 5.226563-2.179688 6.34375-4.789063l23.8125-55.558594 20.382813-6.542968c2.867187-.921875 4.976563-3.382813 5.453125-6.359375l14.898438-93.429688c.445312-2.757812-.59375-5.546875-2.726563-7.359375zm-443.195313 17.859375 54.023438 18.003907v71.027343l-41.976562-13.476562zm59.570313 140.882813-16.53125-38.574219 15.71875 5.046875 74.210937 42.84375zm154.453125 37.640625-38.605469-22.289063c-.011719-.007812-.027343-.015625-.039062-.023437l-105.355469-60.828125v-182.28125l144-83.140625 144 83.140625v182.28125l-105.355469 60.828125c-.011719.007812-.027343.015625-.039062.023437zm154.453125-37.640625-73.398437 9.316406 74.210937-42.84375 15.71875-5.046875zm47.523437-65.328125-41.976562 13.476562v-71.027343l54.023438-18.003907zm0 0"></path><path d="m300.445312 160.988281-42.335937-6.15625-18.9375-38.359375c-2.6875-5.46875-11.65625-5.46875-14.34375 0l-18.9375 38.359375-42.335937 6.15625c-3.015626.4375-5.515626 2.546875-6.460938 5.445313-.9375 2.890625-.15625 6.070312 2.023438 8.195312l30.640624 29.867188-7.226562 42.164062c-.515625 3 .71875 6.03125 3.179688 7.820313 2.484374 1.804687 5.734374 2.03125 8.429687.609375l37.859375-19.90625 37.859375 19.90625c1.171875.617187 2.453125.921875 3.726563.921875 1.65625 0 3.304687-.515625 4.703124-1.53125 2.460938-1.789063 3.695313-4.820313 3.179688-7.820313l-7.226562-42.164062 30.640624-29.867188c2.179688-2.125 2.960938-5.304687 2.023438-8.195312-.945312-2.898438-3.445312-5.007813-6.460938-5.445313zm-40.382812 34.984375c-1.882812 1.835938-2.742188 4.484375-2.296875 7.078125l5.195313 30.335938-27.234376-14.320313c-1.171874-.617187-2.445312-.921875-3.726562-.921875s-2.554688.304688-3.726562.921875l-27.234376 14.320313 5.195313-30.335938c.445313-2.59375-.414063-5.242187-2.296875-7.078125l-22.039062-21.484375 30.453124-4.429687c2.609376-.375 4.859376-2.015625 6.023438-4.375l13.625-27.59375 13.625 27.59375c1.164062 2.359375 3.414062 4 6.023438 4.375l30.453124 4.429687zm0 0"></path></svg>