<!-- icon666.com - MILLIONS vector ICONS FREE --><svg viewBox="0 0 48 48" fill="#ffffff" xmlns="http://www.w3.org/2000/svg"><g id="Money_profit" data-name="Money profit"><path d="m33 27a10 10 0 1 0 10 10 10 10 0 0 0 -10-10zm-1 9h2a3 3 0 0 1 0 6v1a1 1 0 0 1 -2 0v-1h-2a1 1 0 0 1 0-2h4a1 1 0 0 0 0-2h-2a3 3 0 0 1 0-6v-1a1 1 0 0 1 2 0v1h2a1 1 0 0 1 0 2h-4a1 1 0 0 0 0 2z"/><path d="m6 41h15.69a11.72 11.72 0 0 1 -.69-4h-15a1 1 0 0 0 -1 1v2a1 1 0 0 0 1 1z"/><path d="m6 35c16.94 0 15.11.17 15.24-.4a11.81 11.81 0 0 1 1.37-3.6h-16.61a1 1 0 0 0 -1 1v2a1 1 0 0 0 1 1z"/><path d="m6 29h18.07c1.2-1.33.93-.34.93-3a1 1 0 0 0 -1-1h-18a1 1 0 0 0 -1 1v2a1 1 0 0 0 1 1z"/><path d="m22.61 43h-16.61a1 1 0 0 0 -1 1v2a1 1 0 0 0 1 1h18a1 1 0 0 0 1-1.07 12 12 0 0 1 -2.39-2.93z"/><path d="m18 23h6a3 3 0 0 1 3 3c0 1.16-.37.41 2.4-.45.2-.06.4-.12.6-.16v-15.39h4l-10-9-10 9h4z"/></g></svg>