<!-- icon666.com - MILLIONS vector ICONS FREE --><svg xmlns="http://www.w3.org/2000/svg" fill="url(#MyGradient)" viewBox="0 0 88 88">
<defs>
  <linearGradient id="MyGradient">
    <stop offset="5%" stop-color="#e7244c" />
    <stop offset="95%" stop-color="#fd7b56" />
  </linearGradient>
</defs>
<g id="Web_ranking" data-name="Web ranking">
<path d="M80,7H8a7.0081,7.0081,0,0,0-7,7V74a7.0081,7.0081,0,0,0,7,7H80a7.0081,7.0081,0,0,0,7-7V14A7.0081,7.0081,0,0,0,80,7ZM8,9H80a5.0059,5.0059,0,0,1,5,5v5H3V14A5.0059,5.0059,0,0,1,8,9ZM80,79H8a5.0059,5.0059,0,0,1-5-5V21H85V74A5.0059,5.0059,0,0,1,80,79Z"></path>
<path d="M9,17a3,3,0,1,0-3-3A3.0033,3.0033,0,0,0,9,17Zm0-4a1,1,0,1,1-1,1A1.0009,1.0009,0,0,1,9,13Z"></path>
<path d="M17,17a3,3,0,1,0-3-3A3.0033,3.0033,0,0,0,17,17Zm0-4a1,1,0,1,1-1,1A1.0009,1.0009,0,0,1,17,13Z"></path>
<path d="M25,17a3,3,0,1,0-3-3A3.0033,3.0033,0,0,0,25,17Zm0-4a1,1,0,1,1-1,1A1.0009,1.0009,0,0,1,25,13Z"></path>
<path d="M50,15H80a1,1,0,0,0,0-2H50a1,1,0,0,0,0,2Z"></path>
<path d="M44,51.0005a.9984.9984,0,0,0,.3457-.062A76.7243,76.7243,0,0,0,72,33.5493V38a1,1,0,0,0,2,0V31a1.0393,1.0393,0,0,0-1-1H66a1,1,0,0,0,0,2h4.7015A75.5033,75.5033,0,0,1,43.6543,49.0615,1,1,0,0,0,44,51.0005Z"></path>
<path d="M82,68H78V43a1,1,0,0,0-1-1H69a1,1,0,0,0-1,1V68H65V52a1,1,0,0,0-1-1H56a1,1,0,0,0-1,1V68H52V58a1,1,0,0,0-1-1H43a1,1,0,0,0-1,1V68H38a1,1,0,0,0,0,2H82a1,1,0,0,0,0-2ZM44,68V59h6v9Zm13,0V53h6V68Zm13,0V44h6V68Z"></path>
<path d="M30.4987,53.9747A8.0037,8.0037,0,0,0,38,46V41a1,1,0,0,0-1-1H33V38h2a1,1,0,0,0,1-1V33a1,1,0,0,0-1-1H9a1,1,0,0,0-1,1v4a1,1,0,0,0,1,1h2v2H7a1,1,0,0,0-1,1v5a8.0037,8.0037,0,0,0,7.5013,7.9747A11.0437,11.0437,0,0,0,18,57.236V63a5.0059,5.0059,0,0,1-5,5,1,1,0,0,0,0,2H31a1,1,0,0,0,0-2,5.0059,5.0059,0,0,1-5-5V57.236A11.0437,11.0437,0,0,0,30.4987,53.9747ZM36,42v4a6.0116,6.0116,0,0,1-4.0381,5.6709,11.3926,11.3926,0,0,0,.9748-3.506A11.0682,11.0682,0,0,0,33,47V42ZM10,34H34v2H10Zm2.0381,17.6709A6.0116,6.0116,0,0,1,8,46V42h3v5a8.7249,8.7249,0,0,0,.1326,1.6174A10.57,10.57,0,0,0,12.0381,51.6709ZM13,47V38H31v9a9,9,0,0,1-18,0ZM24,57.8179V63a6.9788,6.9788,0,0,0,2.1055,5h-8.211A6.9788,6.9788,0,0,0,20,63V57.8179A12.363,12.363,0,0,0,22,58,12.363,12.363,0,0,0,24,57.8179Z"></path>
</g>
</svg>
