<!-- icon666.com - MILLIONS vector ICONS FREE --><svg id="Layer_1" enable-background="new 0 0 468 468" fill="#ffffff" viewBox="0 0 468 468" xmlns="http://www.w3.org/2000/svg"><g><g><path d="m234 112.945c-46.201 0-83.788 37.141-83.788 82.793s37.587 82.793 83.788 82.793 83.788-37.141 83.788-82.793-37.587-82.793-83.788-82.793zm-2.938 122.629c-5.891 6.155-16.297 5.855-21.819-.655l-25.259-29.766 22.41-19.016 14.712 17.337 43.543-45.476 21.229 20.326z"/><path d="m327.157 0h-186.238c-5.461 41.428-37.174 75.725-80.78 87.148-.385 169.209 82.876 249.547 135.84 283.503h69.963c54.739-38.059 140.874-123.372 141.914-283.525-43.567-11.443-75.241-45.721-80.699-87.126zm-93.157 307.923c-62.407 0-113.179-50.325-113.179-112.185s50.772-112.184 113.179-112.184 113.179 50.325 113.179 112.185-50.772 112.184-113.179 112.184z"/></g><g id="XMLID_136_"><path d="m97.433 468h273.435v-67.957h-273.435z"/><path d="m400.258 439.326h67.742v-63.941h-67.751z"/><path d="m0 439.326h67.997l-.198-63.941h-67.799z"/></g></g></svg>