<svg xmlns="http://www.w3.org/2000/svg" width="996.909" fill="url(#MyGradient)" height="970" viewBox="0 0 996.909 970">
  <defs>
    <linearGradient id="MyGradient">
    <stop offset="5%" stop-color="#0069FF" />
    <stop offset="35%" stop-color="#BC51DF" />
  </linearGradient>
  </defs>
  <path id="MyGradient" data-name="Фигура 318 10" class="cls-1" d="M1057,543.759c-25.12-124.976-170.29-152.331-225.187-157.612-128.521-12.363-202.1,29.172-235.164,109.116-37.357,90.335-16.8,210.133,22.8,280.872,79.6,142.191,259.159,128.054,357.733,12.124C1005.1,755.431,1078.75,651.958,1057,543.759ZM1005.68,99.6C991,26.378,906.112,10.352,874.013,7.258c-75.147-7.243-118.172,17.091-137.5,63.926-21.844,52.924-9.821,123.109,13.333,164.552,46.542,83.3,151.533,75.021,209.171,7.1C975.337,223.606,1018.4,162.986,1005.68,99.6ZM513.263,356.338c-4.671-23.733-31.666-28.928-41.874-29.93-23.9-2.348-37.581,5.54-43.728,20.721-6.947,17.154-3.124,39.9,4.24,53.337,14.8,27,48.191,24.317,66.521,2.3C503.612,396.534,517.307,376.885,513.263,356.338Zm17.88,299.871C506.7,534.01,365.427,507.262,312,502.1,186.936,490.011,115.33,530.623,83.157,608.79,46.8,697.118,66.812,814.254,105.348,883.421c77.461,139.029,252.2,125.209,348.125,11.855C480.638,863.177,552.3,762,531.143,656.209ZM444.411,152.031c-10.068-46.961-68.256-57.24-90.261-59.224-51.514-4.645-81.008,10.961-94.259,41-14.974,33.944-6.733,78.959,9.14,105.54,31.9,53.429,103.878,48.117,143.389,4.556C423.609,231.568,453.128,192.687,444.411,152.031ZM575.828,300.518c-1.09-3.534-7.389-4.308-9.77-4.457-5.577-.35-8.769.825-10.2,3.086-1.621,2.555-.729,5.943.99,7.944,3.453,4.021,11.244,3.621,15.521.343C573.576,306.505,576.772,303.579,575.828,300.518Zm-63.975-2.645c-0.935-3.03-6.334-3.693-8.375-3.821-4.78-.3-7.516.707-8.746,2.645-1.389,2.19-.625,5.094.848,6.809,2.96,3.447,9.638,3.105,13.3.294C509.922,303,512.661,300.5,511.853,297.873Zm42.983,49.3C553.8,335.3,547.8,332.705,545.531,332.2c-5.311-1.174-8.351,2.77-9.718,10.36-1.543,8.578-.694,19.952.943,26.669,3.289,13.5,10.709,12.159,14.782,1.151C552.692,367.267,555.735,357.442,554.836,347.169Zm43.025,24.318c-0.882-4.292-5.981-5.232-7.91-5.413-4.514-.425-7.1,1-8.26,3.747a11.865,11.865,0,0,0,.8,9.646c2.8,4.884,9.1,4.4,12.565.417C596.038,378.756,598.625,375.2,597.861,371.487Z" transform="translate(-64.031 -6)"/>
</svg>
